<svg width="20" height="21" viewBox="0 0 20 21" fill="none" xmlns="http://www.w3.org/2000/svg">
<path fill-rule="evenodd" clip-rule="evenodd" d="M0.378279 0.373276C-0.122724 0.874279 -0.126564 1.69037 0.3697 2.19607L8.46338 10.4436L0.55985 18.4973C0.0635861 19.003 0.067427 19.8191 0.56843 20.3201C1.06943 20.8211 1.87788 20.8173 2.37414 20.3116L10.2607 12.2751L17.6259 19.7802C18.1221 20.2859 18.9306 20.2897 19.4316 19.7887C19.9326 19.2877 19.9364 18.4716 19.4402 17.9659L12.0581 10.4436L19.6303 2.72746C20.1266 2.22176 20.1227 1.40567 19.6217 0.90467C19.1207 0.403667 18.3123 0.407474 17.816 0.913171L10.2607 8.61205L2.18399 0.381776C1.68773 -0.12392 0.879281 -0.127726 0.378279 0.373276Z" fill="#404040"/>
</svg>
