<svg width="20" height="22" viewBox="0 0 20 22" fill="none" xmlns="http://www.w3.org/2000/svg">
<path opacity="0.3" fill-rule="evenodd" clip-rule="evenodd" d="M0.378279 1.12376C-0.122724 1.62477 -0.126564 2.44086 0.3697 2.94656L8.46338 11.1941L0.55985 19.2478C0.0635861 19.7535 0.067427 20.5696 0.56843 21.0706C1.06943 21.5716 1.87788 21.5678 2.37414 21.0621L10.2607 13.0256L17.6259 20.5307C18.1221 21.0364 18.9306 21.0402 19.4316 20.5392C19.9326 20.0382 19.9364 19.2221 19.4402 18.7164L12.0581 11.1941L19.6303 3.47795C20.1266 2.97225 20.1227 2.15616 19.6217 1.65516C19.1207 1.15416 18.3123 1.15796 17.816 1.66366L10.2607 9.36254L2.18399 1.13226C1.68773 0.626568 0.879281 0.622762 0.378279 1.12376Z" fill="white"/>
</svg>
